# xmcd
# Copyright (C) 1995-1998 Ti Kan
#
# Track frame offsets:
#       150
#       15635
#       40286
#
# Disc length: 1876 seconds
#
# Revision: 0
# Processed by: cddbd v1.5.2PL0 Copyright (c) Steve Scherf et al.
# Submitted via: CD-Import v1.0
#
DISCID=1b075203
DTITLE=Pullup Orchestra - No Matter
DYEAR=2010
DGENRE=
TTITLE0=No Matter
TTITLE1=That Song
TTITLE2=Data Track
EXTD=
EXTT0=
EXTT1=
EXTT2=
PLAYORDER=
